<?xml version="1.0" encoding="UTF-8" standalone="no"?>
<!-- Created with Inkscape (http://www.inkscape.org/) -->

<svg
   xmlns:dc="http://purl.org/dc/elements/1.1/"
   xmlns:cc="http://creativecommons.org/ns#"
   xmlns:rdf="http://www.w3.org/1999/02/22-rdf-syntax-ns#"
   xmlns:svg="http://www.w3.org/2000/svg"
   xmlns="http://www.w3.org/2000/svg"
   xmlns:sodipodi="http://sodipodi.sourceforge.net/DTD/sodipodi-0.dtd"
   xmlns:inkscape="http://www.inkscape.org/namespaces/inkscape"
   version="1.1"
   width="70.125"
   height="70.125"
   id="svg4555"
   inkscape:version="0.48.2 r9819"
   sodipodi:docname="outer.svg">
  <sodipodi:namedview
     pagecolor="#ffffff"
     bordercolor="#666666"
     borderopacity="1"
     objecttolerance="10"
     gridtolerance="10"
     guidetolerance="10"
     inkscape:pageopacity="0"
     inkscape:pageshadow="2"
     inkscape:window-width="1366"
     inkscape:window-height="744"
     id="namedview33"
     showgrid="false"
     inkscape:zoom="3.3654189"
     inkscape:cx="35.0625"
     inkscape:cy="35.0625"
     inkscape:window-x="0"
     inkscape:window-y="24"
     inkscape:window-maximized="1"
     inkscape:current-layer="svg4555" />
  <defs
     id="defs4557" />
  <metadata
     id="metadata4560">
    <rdf:RDF>
      <cc:Work
         rdf:about="">
        <dc:format>image/svg+xml</dc:format>
        <dc:type
           rdf:resource="http://purl.org/dc/dcmitype/StillImage" />
        <dc:title />
      </cc:Work>
    </rdf:RDF>
  </metadata>
  <g
     transform="matrix(-0.20129077,0,0,-0.20192619,48.394961,66.945737)"
     id="layer1-8"
     style="fill:#000000;fill-opacity:1;stroke:#000000;stroke-width:2.46246886;stroke-miterlimit:4;stroke-opacity:1;stroke-dasharray:none" />
  <g
     transform="matrix(0,-0.20129076,0.20192619,0,3.1792627,48.519963)"
     id="g29"
     style="fill:#000000;fill-opacity:1;stroke:#000000;stroke-width:2.46246886;stroke-miterlimit:4;stroke-opacity:1;stroke-dasharray:none" />
  <g
     transform="matrix(0,0.20129076,-0.20192619,0,66.820735,21.73004)"
     id="g348"
     style="fill:#000000;fill-opacity:1;stroke:#000000;stroke-width:2.46246886;stroke-miterlimit:4;stroke-opacity:1;stroke-dasharray:none" />
  <g
     transform="matrix(0.20129077,0,0,0.20192619,21.605037,3.304265)"
     id="g374"
     style="fill:#000000;fill-opacity:1;stroke:#000000;stroke-width:2.46246886;stroke-miterlimit:4;stroke-opacity:1;stroke-dasharray:none">
    <path
       id="path376"
       style="fill:#000000;fill-opacity:1;stroke:#000000;stroke-width:0;stroke-miterlimit:4;stroke-opacity:1;stroke-dasharray:none"
       d="m 240.25546,281.4213 -49.5812,0 0,49.4419 c 0,0 51.81782,3.65274 49.5812,-49.4419 z m -49.58119,-0.097 0,49.49533 -49.65157,0 0,-49.49533 z m -49.65158,0 0,49.49533 -49.651578,0 0,-49.49533 z m -49.651568,0 0,49.49533 -49.651573,0 0,-49.49533 z m -49.651563,0 0,49.49533 -49.6515788,0 0,-49.49533 z m -49.6515688,0 0,49.49533 -49.6515732,0 0,-49.49533 z m -49.7488902,49.42516 0,-49.42517 -49.59797,0 c 0,0 -3.66426,51.65476 49.59797,49.42517 z m 248.35517,-98.92049 49.65158,0 0,49.49534 -49.65158,0 z m -297.90945,0 49.651567,0 0,49.49534 -49.651567,0 z m 297.90945,-49.49534 49.65158,0 0,49.49535 -49.65158,0 z m -297.90945,0 49.651567,0 0,49.49535 -49.651567,0 z m 297.90945,-49.49531 49.65158,0 0,49.49532 -49.65158,0 z m -297.90945,0 49.651567,0 0,49.49532 -49.651567,0 z m 297.90945,-49.495335 49.65158,0 0,49.495345 -49.65158,0 z m -297.90945,0 49.651567,0 0,49.495345 -49.651567,0 z m 297.90945,-49.49534 49.65158,0 0,49.495335 -49.65158,0 z m -297.90945,0 49.651567,0 0,49.495335 -49.651567,0 z m 298.00677,-49.425163 0,49.425181 49.59797,0 c 0,0 3.66426,-51.654766 -49.59797,-49.425181 z m -0.0973,-0.07021 0,49.495333 -49.65157,0 0,-49.495333 z m -49.65158,0 0,49.495333 -49.651578,0 0,-49.495333 z m -49.651567,0 0,49.495333 -49.651574,0 0,-49.495333 z m -49.651564,0 0,49.495333 -49.6515786,0 0,-49.495333 z m -49.6515686,0 0,49.495333 -49.6515734,0 0,-49.495333 z m -99.2327604,49.398353 49.581201,0 0,-49.441898 c 0,0 -51.817821,-3.652736 -49.581201,49.441898 z"
       inkscape:connector-curvature="0" />
  </g>
</svg>
