<?xml version="1.0" encoding="UTF-8" standalone="no"?>
<!-- Created with Inkscape (http://www.inkscape.org/) -->

<svg
   xmlns:dc="http://purl.org/dc/elements/1.1/"
   xmlns:cc="http://creativecommons.org/ns#"
   xmlns:rdf="http://www.w3.org/1999/02/22-rdf-syntax-ns#"
   xmlns:svg="http://www.w3.org/2000/svg"
   xmlns="http://www.w3.org/2000/svg"
   xmlns:sodipodi="http://sodipodi.sourceforge.net/DTD/sodipodi-0.dtd"
   xmlns:inkscape="http://www.inkscape.org/namespaces/inkscape"
   version="1.1"
   width="70.125"
   height="70.09375"
   id="svg3001"
   inkscape:version="0.48.2 r9819"
   sodipodi:docname="outer.svg">
  <sodipodi:namedview
     pagecolor="#ffffff"
     bordercolor="#666666"
     borderopacity="1"
     objecttolerance="10"
     gridtolerance="10"
     guidetolerance="10"
     inkscape:pageopacity="0"
     inkscape:pageshadow="2"
     inkscape:window-width="1366"
     inkscape:window-height="744"
     id="namedview29"
     showgrid="true"
     inkscape:zoom="4.7615429"
     inkscape:cx="73.979245"
     inkscape:cy="24.329486"
     inkscape:window-x="0"
     inkscape:window-y="24"
     inkscape:window-maximized="1"
     inkscape:current-layer="svg3001"
     inkscape:object-paths="true"
     inkscape:snap-nodes="true"
     showguides="true"
     inkscape:guide-bbox="true">
    <inkscape:grid
       type="xygrid"
       id="grid2984" />
  </sodipodi:namedview>
  <defs
     id="defs3003">
    <inkscape:path-effect
       effect="spiro"
       id="path-effect3760"
       is_visible="true" />
    <inkscape:path-effect
       effect="spiro"
       id="path-effect2988"
       is_visible="true" />
    <inkscape:path-effect
       effect="spiro"
       id="path-effect3760-9"
       is_visible="true" />
    <inkscape:path-effect
       effect="spiro"
       id="path-effect3760-3"
       is_visible="true" />
    <inkscape:path-effect
       effect="spiro"
       id="path-effect3760-9-4"
       is_visible="true" />
    <inkscape:path-effect
       effect="spiro"
       id="path-effect3760-9-4-2"
       is_visible="true" />
  </defs>
  <metadata
     id="metadata3006">
    <rdf:RDF>
      <cc:Work
         rdf:about="">
        <dc:format>image/svg+xml</dc:format>
        <dc:type
           rdf:resource="http://purl.org/dc/dcmitype/StillImage" />
        <dc:title />
      </cc:Work>
    </rdf:RDF>
  </metadata>
  <path
     style="fill:#000000;fill-opacity:1;stroke:none"
     d="M 0,3.0937497 C 5.9370777,4.2573856 12.040219,4.5703073 18.065175,4.0199918 23.853842,3.4912587 29.56923,2.166179 35,0.09375 40.298961,2.2120674 45.900265,3.5724134 51.580565,4.1205456 57.872484,4.7276972 64.259692,4.3366549 70.430555,2.9664978 L 68.51539,10.627159 C 62.958831,11.588438 57.27921,11.836026 51.66008,11.361921 45.982385,10.882875 40.367281,9.6670013 35,7.7544102 29.709454,9.7852814 24.132945,11.069579 18.487034,11.557427 12.813412,12.04767 7.070878,11.733474 1.4846097,10.627159 L 0,3.0937497"
     id="path2986"
     inkscape:path-effect="#path-effect2988"
     inkscape:original-d="m 0,3.0937497 c 0,0 12.638361,1.2365975 18.065175,0.9262421 C 23.810143,3.6914404 35,0.09375 35,0.09375 c 0,0 11.153751,3.7164393 16.580565,4.0267956 5.744968,0.3285505 18.84999,-1.1540478 18.84999,-1.1540478 L 68.51539,10.627159 c 0,0 -11.06962,1.065586 -16.85531,0.734762 C 46.27399,11.053947 35,7.7544102 35,7.7544102 c 0,0 -10.910341,3.4827408 -16.512966,3.8030168 -5.569473,0.31838 -17.0024243,-0.930268 -17.0024243,-0.930268 z"
     inkscape:connector-curvature="0"
     sodipodi:nodetypes="cscsccscscc" />
  <path
     style="fill:#000000;fill-opacity:1;stroke:none"
     d="m -1,66.09375 c 11.81276,2.592225 23.906161,3.903529 36,3.903529 12.093839,0 24.18724,-1.311304 36,-3.903529 L 68.51539,58.506288 C 57.452711,60.416783 46.226435,61.379035 35,61.379035 c -11.226436,0 -22.452711,-0.962252 -33.5153903,-2.872747 L -1,66.09375"
     id="path3758-1"
     inkscape:path-effect="#path-effect3760-3"
     inkscape:original-d="m -1,66.09375 c 0,0 24.233656,3.903529 36,3.903529 11.854027,0 36,-3.903529 36,-3.903529 l -2.48461,-7.587462 c 0,0 -22.343593,2.872747 -33.51539,2.872747 -11.171797,0 -33.5153903,-2.872747 -33.5153903,-2.872747 z"
     inkscape:connector-curvature="0"
     sodipodi:nodetypes="csccscc" />
  <path
     style="fill:#000000;fill-opacity:1;stroke:none"
     d="m 8,11.09375 c 3.710682,7.437497 5.774132,15.691299 6,24 0.232891,8.567057 -1.490002,17.181521 -5,25 L 1.4846097,58.506288 C 3.1196699,50.815332 3.9640044,42.956506 4,35.09375 4.0376041,26.879645 3.1927328,18.661787 1.4846097,10.627159 L 8,11.09375"
     id="path3758-2-5"
     inkscape:path-effect="#path-effect3760-9-4"
     inkscape:original-d="m 8,11.09375 c 0,0 6,9 6,24 0,15 -5,25 -5,25 L 1.4846097,58.506288 C 1.4846097,58.506288 4,43.071035 4,35.09375 4,25.515358 1.4846097,10.627159 1.4846097,10.627159 z"
     inkscape:connector-curvature="0"
     sodipodi:nodetypes="csccscc" />
  <path
     style="fill:#000000;fill-opacity:1;stroke:none"
     d="m 62,11.09375 c -3.710682,7.437497 -5.774132,15.691299 -6,24 -0.232891,8.567057 1.490002,17.181521 5,25 l 7.51539,-1.587462 C 66.88033,50.815332 66.035996,42.956506 66,35.09375 65.962396,26.879645 66.807267,18.661787 68.51539,10.627159 L 62,11.09375"
     id="path3758-2-5-6"
     inkscape:path-effect="#path-effect3760-9-4-2"
     inkscape:original-d="m 62,11.09375 c 0,0 -6,9 -6,24 0,15 5,25 5,25 l 7.51539,-1.587462 c 0,0 -2.51539,-15.435253 -2.51539,-23.412538 0,-9.578392 2.51539,-24.466591 2.51539,-24.466591 z"
     inkscape:connector-curvature="0"
     sodipodi:nodetypes="csccscc" />
</svg>
