<?xml version="1.0" encoding="UTF-8" standalone="no"?>
<!-- Created with Inkscape (http://www.inkscape.org/) -->

<svg
   xmlns:dc="http://purl.org/dc/elements/1.1/"
   xmlns:cc="http://creativecommons.org/ns#"
   xmlns:rdf="http://www.w3.org/1999/02/22-rdf-syntax-ns#"
   xmlns:svg="http://www.w3.org/2000/svg"
   xmlns="http://www.w3.org/2000/svg"
   version="1.1"
   width="30.022392"
   height="30.022392"
   id="svg5816">
  <defs
     id="defs5818" />
  <metadata
     id="metadata5821">
    <rdf:RDF>
      <cc:Work
         rdf:about="">
        <dc:format>image/svg+xml</dc:format>
        <dc:type
           rdf:resource="http://purl.org/dc/dcmitype/StillImage" />
        <dc:title></dc:title>
      </cc:Work>
    </rdf:RDF>
  </metadata>
  <path
     d="m 0.27908591,10.09152 9.80930109,0 0,-9.81262042 c 0,0 -10.2518016,-0.72495055 -9.80930109,9.81262042 z"
     id="path120"
     style="fill:#000000;fill-opacity:1;stroke:#000000;stroke-width:0.49180314;stroke-miterlimit:4;stroke-opacity:1;stroke-dasharray:none" />
  <rect
     width="9.823225"
     height="9.823226"
     rx="0"
     ry="0.048629832"
     x="-19.911615"
     y="-10.110779"
     transform="scale(-1,-1)"
     id="rect124"
     style="fill:#000000;fill-opacity:1;stroke:#000000;stroke-width:0.49180314;stroke-miterlimit:4;stroke-opacity:1;stroke-dasharray:none" />
  <path
     d="m 19.930872,0.30147781 0,9.80930219 9.81262,0 c 0,0 0.724951,-10.25180281 -9.81262,-9.80930219 z"
     id="path130"
     style="fill:#000000;fill-opacity:1;stroke:#000000;stroke-width:0.49180314;stroke-miterlimit:4;stroke-opacity:1;stroke-dasharray:none" />
  <rect
     width="9.823226"
     height="9.823225"
     rx="0"
     ry="0.048629832"
     x="10.110779"
     y="-10.088387"
     transform="matrix(0,1,-1,0,0,0)"
     id="rect188"
     style="fill:#000000;fill-opacity:1;stroke:#000000;stroke-width:0.49180314;stroke-miterlimit:4;stroke-opacity:1;stroke-dasharray:none" />
  <rect
     width="9.823225"
     height="9.823226"
     rx="0"
     ry="0.048629832"
     x="10.088387"
     y="10.110779"
     id="rect192"
     style="fill:#000000;fill-opacity:1;stroke:#000000;stroke-width:0.49180314;stroke-miterlimit:4;stroke-opacity:1;stroke-dasharray:none" />
  <rect
     width="9.823226"
     height="9.823225"
     rx="0"
     ry="0.048629832"
     x="-19.934006"
     y="19.911615"
     transform="matrix(0,-1,1,0,0,0)"
     id="rect196"
     style="fill:#000000;fill-opacity:1;stroke:#000000;stroke-width:0.49180314;stroke-miterlimit:4;stroke-opacity:1;stroke-dasharray:none" />
  <path
     d="m 10.069127,29.743307 0,-9.809302 -9.81261997,0 c 0,0 -0.72495019,10.251803 9.81261997,9.809302 z"
     id="path250"
     style="fill:#000000;fill-opacity:1;stroke:#000000;stroke-width:0.49180314;stroke-miterlimit:4;stroke-opacity:1;stroke-dasharray:none" />
  <rect
     width="9.823225"
     height="9.823226"
     rx="0"
     ry="0.048629832"
     x="10.088387"
     y="19.934006"
     id="rect254"
     style="fill:#000000;fill-opacity:1;stroke:#000000;stroke-width:0.49180314;stroke-miterlimit:4;stroke-opacity:1;stroke-dasharray:none" />
  <path
     d="m 29.720914,19.953265 -9.809302,0 0,9.81262 c 0,0 10.251803,0.72495 9.809302,-9.81262 z"
     id="path260"
     style="fill:#000000;fill-opacity:1;stroke:#000000;stroke-width:0.49180314;stroke-miterlimit:4;stroke-opacity:1;stroke-dasharray:none" />
</svg>
