<?xml version="1.0" encoding="UTF-8" standalone="no"?>
<!-- Created with Inkscape (http://www.inkscape.org/) -->

<svg
   xmlns:dc="http://purl.org/dc/elements/1.1/"
   xmlns:cc="http://creativecommons.org/ns#"
   xmlns:rdf="http://www.w3.org/1999/02/22-rdf-syntax-ns#"
   xmlns:svg="http://www.w3.org/2000/svg"
   xmlns="http://www.w3.org/2000/svg"
   version="1.1"
   width="30.022392"
   height="30.022392"
   id="svg5816">
  <defs
     id="defs5818" />
  <metadata
     id="metadata5821">
    <rdf:RDF>
      <cc:Work
         rdf:about="">
        <dc:format>image/svg+xml</dc:format>
        <dc:type
           rdf:resource="http://purl.org/dc/dcmitype/StillImage" />
        <dc:title></dc:title>
      </cc:Work>
    </rdf:RDF>
  </metadata>
  <path
     d="m 0.03373906,10.00934 9.97279194,0 0,-9.97616614 c 0,0 -10.42266755,-0.73703286 -9.97279194,9.97616614 z"
     id="path120"
     style="fill:#000000;fill-opacity:1;stroke:none" />
  <rect
     width="9.986948"
     height="9.986948"
     rx="0"
     ry="0.049440339"
     x="-19.993481"
     y="-10.02892"
     transform="scale(-1,-1)"
     id="rect124"
     style="fill:#000000;fill-opacity:1;stroke:none" />
  <path
     d="m 20.01306,0.05612906 0,9.97279194 9.976166,0 c 0,0 0.737033,-10.42266755 -9.976166,-9.97279194 z"
     id="path130"
     style="fill:#000000;fill-opacity:1;stroke:none" />
  <rect
     width="9.986948"
     height="9.986948"
     rx="0"
     ry="0.049440339"
     x="10.02892"
     y="-10.00653"
     transform="matrix(0,1,-1,0,0,0)"
     id="rect188"
     style="fill:#000000;fill-opacity:1;stroke:none" />
  <rect
     width="9.986948"
     height="9.986948"
     rx="0"
     ry="0.049440339"
     x="10.00653"
     y="10.02892"
     id="rect192"
     style="fill:#000000;fill-opacity:1;stroke:none" />
  <rect
     width="9.986948"
     height="9.986948"
     rx="0"
     ry="0.049440339"
     x="-20.015869"
     y="19.993481"
     transform="matrix(0,-1,1,0,0,0)"
     id="rect196"
     style="fill:#000000;fill-opacity:1;stroke:none" />
  <path
     d="m 9.9869495,29.988661 0,-9.972792 -9.97616564,0 c 0,0 -0.73703286,10.422668 9.97616564,9.972792 z"
     id="path250"
     style="fill:#000000;fill-opacity:1;stroke:none" />
  <rect
     width="9.986948"
     height="9.986948"
     rx="0"
     ry="0.049440339"
     x="10.00653"
     y="20.015869"
     id="rect254"
     style="fill:#000000;fill-opacity:1;stroke:none" />
  <path
     d="m 29.966271,20.03545 -9.972792,0 0,9.976166 c 0,0 10.422668,0.737033 9.972792,-9.976166 z"
     id="path260"
     style="fill:#000000;fill-opacity:1;stroke:none" />
</svg>
