<?xml version="1.0" encoding="UTF-8" standalone="no"?>
<!-- Created with Inkscape (http://www.inkscape.org/) -->

<svg
   xmlns:dc="http://purl.org/dc/elements/1.1/"
   xmlns:cc="http://creativecommons.org/ns#"
   xmlns:rdf="http://www.w3.org/1999/02/22-rdf-syntax-ns#"
   xmlns:svg="http://www.w3.org/2000/svg"
   xmlns="http://www.w3.org/2000/svg"
   version="1.1"
   width="70.125"
   height="70.125"
   id="svg4555">
  <defs
     id="defs4557" />
  <metadata
     id="metadata4560">
    <rdf:RDF>
      <cc:Work
         rdf:about="">
        <dc:format>image/svg+xml</dc:format>
        <dc:type
           rdf:resource="http://purl.org/dc/dcmitype/StillImage" />
        <dc:title></dc:title>
      </cc:Work>
    </rdf:RDF>
  </metadata>
  <g
     transform="matrix(-0.20272852,0,0,-0.20336849,48.490638,67.173022)"
     id="layer1-8"
     style="fill:#000000;fill-opacity:1;stroke:none">
    <path
       d="m 239.02346,280.54304 -49.22956,0 0,49.09124 c 0,0 51.45032,3.62683 49.22956,-49.09124 z"
       id="path3020-7"
       style="fill:#000000;fill-opacity:1;stroke:none" />
  </g>
  <rect
     width="9.9944019"
     height="9.9944019"
     rx="0"
     ry="0.049477238"
     x="0.14458995"
     y="-20.0084"
     transform="matrix(0,1,-1,0,0,0)"
     id="rect3011"
     style="fill:#000000;fill-opacity:1;stroke:none" />
  <rect
     width="9.9944019"
     height="9.9944019"
     rx="0"
     ry="0.049477238"
     x="0.14458995"
     y="-30.0028"
     transform="matrix(0,1,-1,0,0,0)"
     id="rect13"
     style="fill:#000000;fill-opacity:1;stroke:none" />
  <rect
     width="9.9944019"
     height="9.9944019"
     rx="0"
     ry="0.049477238"
     x="0.14458995"
     y="-39.9972"
     transform="matrix(0,1,-1,0,0,0)"
     id="rect17"
     style="fill:#000000;fill-opacity:1;stroke:none" />
  <rect
     width="9.9944019"
     height="9.9944019"
     rx="0"
     ry="0.049477238"
     x="0.14458995"
     y="-49.9916"
     transform="matrix(0,1,-1,0,0,0)"
     id="rect21"
     style="fill:#000000;fill-opacity:1;stroke:none" />
  <rect
     width="9.9944019"
     height="9.9944019"
     rx="0"
     ry="0.049477238"
     x="0.14458995"
     y="-59.986"
     transform="matrix(0,1,-1,0,0,0)"
     id="rect25"
     style="fill:#000000;fill-opacity:1;stroke:none" />
  <g
     transform="matrix(0,-0.20272852,0.20336849,0,2.9519782,48.615638)"
     id="g29"
     style="fill:#000000;fill-opacity:1;stroke:none">
    <path
       d="m 239.02346,280.54304 -49.22956,0 0,49.09124 c 0,0 51.45032,3.62683 49.22956,-49.09124 z"
       id="path31"
       style="fill:#000000;fill-opacity:1;stroke:none" />
  </g>
  <rect
     width="9.9944019"
     height="9.9944019"
     rx="0"
     ry="0.049477238"
     x="0.019589949"
     y="10.139"
     id="rect86"
     style="fill:#000000;fill-opacity:1;stroke:none" />
  <rect
     width="9.9944019"
     height="9.9944019"
     rx="0"
     ry="0.049477238"
     x="59.986"
     y="10.139"
     id="rect90"
     style="fill:#000000;fill-opacity:1;stroke:none" />
  <rect
     width="9.9944019"
     height="9.9944019"
     rx="0"
     ry="0.049477238"
     x="0.019589949"
     y="20.1334"
     id="rect114"
     style="fill:#000000;fill-opacity:1;stroke:none" />
  <rect
     width="9.9944019"
     height="9.9944019"
     rx="0"
     ry="0.049477238"
     x="59.986"
     y="20.1334"
     id="rect134"
     style="fill:#000000;fill-opacity:1;stroke:none" />
  <rect
     width="9.9944019"
     height="9.9944019"
     rx="0"
     ry="0.049477238"
     x="0.019589949"
     y="30.1278"
     id="rect184"
     style="fill:#000000;fill-opacity:1;stroke:none" />
  <rect
     width="9.9944019"
     height="9.9944019"
     rx="0"
     ry="0.049477238"
     x="59.986"
     y="30.1278"
     id="rect200"
     style="fill:#000000;fill-opacity:1;stroke:none" />
  <rect
     width="9.9944019"
     height="9.9944019"
     rx="0"
     ry="0.049477238"
     x="0.019589949"
     y="40.1222"
     id="rect244"
     style="fill:#000000;fill-opacity:1;stroke:none" />
  <rect
     width="9.9944019"
     height="9.9944019"
     rx="0"
     ry="0.049477238"
     x="59.986"
     y="40.1222"
     id="rect264"
     style="fill:#000000;fill-opacity:1;stroke:none" />
  <rect
     width="9.9944019"
     height="9.9944019"
     rx="0"
     ry="0.049477238"
     x="0.019589949"
     y="50.1166"
     id="rect310"
     style="fill:#000000;fill-opacity:1;stroke:none" />
  <rect
     width="9.9944019"
     height="9.9944019"
     rx="0"
     ry="0.049477238"
     x="59.986"
     y="50.1166"
     id="rect314"
     style="fill:#000000;fill-opacity:1;stroke:none" />
  <g
     transform="matrix(0,0.20272852,-0.20336849,0,67.048022,21.634362)"
     id="g348"
     style="fill:#000000;fill-opacity:1;stroke:none">
    <path
       d="m 239.02346,280.54304 -49.22956,0 0,49.09124 c 0,0 51.45032,3.62683 49.22956,-49.09124 z"
       id="path350"
       style="fill:#000000;fill-opacity:1;stroke:none" />
  </g>
  <rect
     width="9.9944019"
     height="9.9944019"
     rx="0"
     ry="0.049477238"
     x="60.111"
     y="-20.0084"
     transform="matrix(0,1,-1,0,0,0)"
     id="rect354"
     style="fill:#000000;fill-opacity:1;stroke:none" />
  <rect
     width="9.9944019"
     height="9.9944019"
     rx="0"
     ry="0.049477238"
     x="60.111"
     y="-30.0028"
     transform="matrix(0,1,-1,0,0,0)"
     id="rect358"
     style="fill:#000000;fill-opacity:1;stroke:none" />
  <rect
     width="9.9944019"
     height="9.9944019"
     rx="0"
     ry="0.049477238"
     x="60.111"
     y="-39.9972"
     transform="matrix(0,1,-1,0,0,0)"
     id="rect362"
     style="fill:#000000;fill-opacity:1;stroke:none" />
  <rect
     width="9.9944019"
     height="9.9944019"
     rx="0"
     ry="0.049477238"
     x="60.111"
     y="-49.9916"
     transform="matrix(0,1,-1,0,0,0)"
     id="rect366"
     style="fill:#000000;fill-opacity:1;stroke:none" />
  <rect
     width="9.9944019"
     height="9.9944019"
     rx="0"
     ry="0.049477238"
     x="60.111"
     y="-59.986"
     transform="matrix(0,1,-1,0,0,0)"
     id="rect370"
     style="fill:#000000;fill-opacity:1;stroke:none" />
  <g
     transform="matrix(0.20272852,0,0,0.20336849,21.509362,3.0769782)"
     id="g374"
     style="fill:#000000;fill-opacity:1;stroke:none">
    <path
       d="m 239.02346,280.54304 -49.22956,0 0,49.09124 c 0,0 51.45032,3.62683 49.22956,-49.09124 z"
       id="path376"
       style="fill:#000000;fill-opacity:1;stroke:none" />
  </g>
</svg>
