<?xml version="1.0" encoding="UTF-8" standalone="no"?>
<!-- Created with Inkscape (http://www.inkscape.org/) -->

<svg
   xmlns:dc="http://purl.org/dc/elements/1.1/"
   xmlns:cc="http://creativecommons.org/ns#"
   xmlns:rdf="http://www.w3.org/1999/02/22-rdf-syntax-ns#"
   xmlns:svg="http://www.w3.org/2000/svg"
   xmlns="http://www.w3.org/2000/svg"
   xmlns:sodipodi="http://sodipodi.sourceforge.net/DTD/sodipodi-0.dtd"
   xmlns:inkscape="http://www.inkscape.org/namespaces/inkscape"
   version="1.1"
   width="70.125"
   height="70.09375"
   id="svg3001"
   inkscape:version="0.48.2 r9819"
   sodipodi:docname="outer.svg">
  <sodipodi:namedview
     pagecolor="#ffffff"
     bordercolor="#666666"
     borderopacity="1"
     objecttolerance="10"
     gridtolerance="10"
     guidetolerance="10"
     inkscape:pageopacity="0"
     inkscape:pageshadow="2"
     inkscape:window-width="1366"
     inkscape:window-height="744"
     id="namedview29"
     showgrid="true"
     inkscape:zoom="3.3669193"
     inkscape:cx="-17.210805"
     inkscape:cy="35.046875"
     inkscape:window-x="0"
     inkscape:window-y="24"
     inkscape:window-maximized="1"
     inkscape:current-layer="svg3001">
    <inkscape:grid
       type="xygrid"
       id="grid2982" />
  </sodipodi:namedview>
  <defs
     id="defs3003" />
  <metadata
     id="metadata3006">
    <rdf:RDF>
      <cc:Work
         rdf:about="">
        <dc:format>image/svg+xml</dc:format>
        <dc:type
           rdf:resource="http://purl.org/dc/dcmitype/StillImage" />
        <dc:title />
      </cc:Work>
    </rdf:RDF>
  </metadata>
  <g
     id="g4140">
    <g
       style="fill:#000000;fill-opacity:1;stroke:none"
       id="layer1-3-0-7-5"
       transform="matrix(0.2,0,0,0.2,-41.248367,-44.32757)">
      <rect
         style="fill:#000000;fill-opacity:1;stroke:none"
         id="rect3388-2-2-39-3"
         y="222.1066"
         x="206.24184"
         ry="50"
         rx="50"
         height="50"
         width="50" />
    </g>
    <g
       style="fill:#000000;fill-opacity:1;stroke:none"
       id="layer1-3-0-7-5-4"
       transform="matrix(0.2,0,0,0.2,-31.248367,-44.32757)">
      <rect
         style="fill:#000000;fill-opacity:1;stroke:none"
         id="rect3388-2-2-39-3-6"
         y="222.1066"
         x="206.24184"
         ry="50"
         rx="50"
         height="50"
         width="50" />
    </g>
    <g
       style="fill:#000000;fill-opacity:1;stroke:none"
       id="layer1-3-0-7-5-4-7"
       transform="matrix(0.2,0,0,0.2,-21.248364,-44.32757)">
      <rect
         style="fill:#000000;fill-opacity:1;stroke:none"
         id="rect3388-2-2-39-3-6-0"
         y="222.1066"
         x="206.24184"
         ry="50"
         rx="50"
         height="50"
         width="50" />
    </g>
    <g
       style="fill:#000000;fill-opacity:1;stroke:none"
       id="layer1-3-0-7-5-4-4"
       transform="matrix(0.2,0,0,0.2,-11.248367,-44.32757)">
      <rect
         style="fill:#000000;fill-opacity:1;stroke:none"
         id="rect3388-2-2-39-3-6-9"
         y="222.1066"
         x="206.24184"
         ry="50"
         rx="50"
         height="50"
         width="50" />
    </g>
    <g
       style="fill:#000000;fill-opacity:1;stroke:none"
       id="layer1-3-0-7-5-4-6"
       transform="matrix(0.2,0,0,0.2,-1.2483643,-44.32757)">
      <rect
         style="fill:#000000;fill-opacity:1;stroke:none"
         id="rect3388-2-2-39-3-6-6"
         y="222.1066"
         x="206.24184"
         ry="50"
         rx="50"
         height="50"
         width="50" />
    </g>
    <g
       style="fill:#000000;fill-opacity:1;stroke:none"
       id="layer1-3-0-7-5-4-3"
       transform="matrix(0.2,0,0,0.2,8.7516357,-44.32757)">
      <rect
         style="fill:#000000;fill-opacity:1;stroke:none"
         id="rect3388-2-2-39-3-6-4"
         y="222.1066"
         x="206.24184"
         ry="50"
         rx="50"
         height="50"
         width="50" />
    </g>
    <g
       style="fill:#000000;fill-opacity:1;stroke:none"
       id="layer1-3-0-7-5-4-37"
       transform="matrix(0.2,0,0,0.2,18.751636,-44.32757)">
      <rect
         style="fill:#000000;fill-opacity:1;stroke:none"
         id="rect3388-2-2-39-3-6-3"
         y="222.1066"
         x="206.24184"
         ry="50"
         rx="50"
         height="50"
         width="50" />
    </g>
    <g
       style="fill:#000000;fill-opacity:1;stroke:none"
       id="layer1-3-0-7-5-2"
       transform="matrix(0,0.2,-0.2,0,114.42132,-31.154614)">
      <rect
         style="fill:#000000;fill-opacity:1;stroke:none"
         id="rect3388-2-2-39-3-0"
         y="222.1066"
         x="206.24184"
         ry="50"
         rx="50"
         height="50"
         width="50" />
    </g>
    <g
       style="fill:#000000;fill-opacity:1;stroke:none"
       id="layer1-3-0-7-5-4-2"
       transform="matrix(0,0.2,-0.2,0,114.42132,-21.154614)">
      <rect
         style="fill:#000000;fill-opacity:1;stroke:none"
         id="rect3388-2-2-39-3-6-66"
         y="222.1066"
         x="206.24184"
         ry="50"
         rx="50"
         height="50"
         width="50" />
    </g>
    <g
       style="fill:#000000;fill-opacity:1;stroke:none"
       id="layer1-3-0-7-5-4-7-1"
       transform="matrix(0,0.2,-0.2,0,114.42132,-11.154612)">
      <rect
         style="fill:#000000;fill-opacity:1;stroke:none"
         id="rect3388-2-2-39-3-6-0-8"
         y="222.1066"
         x="206.24184"
         ry="50"
         rx="50"
         height="50"
         width="50" />
    </g>
    <g
       style="fill:#000000;fill-opacity:1;stroke:none"
       id="layer1-3-0-7-5-4-4-6"
       transform="matrix(0,0.2,-0.2,0,114.42132,-1.1546149)">
      <rect
         style="fill:#000000;fill-opacity:1;stroke:none"
         id="rect3388-2-2-39-3-6-9-5"
         y="222.1066"
         x="206.24184"
         ry="50"
         rx="50"
         height="50"
         width="50" />
    </g>
    <g
       style="fill:#000000;fill-opacity:1;stroke:none"
       id="layer1-3-0-7-5-4-6-0"
       transform="matrix(0,0.2,-0.2,0,114.42132,8.8453877)">
      <rect
         style="fill:#000000;fill-opacity:1;stroke:none"
         id="rect3388-2-2-39-3-6-6-5"
         y="222.1066"
         x="206.24184"
         ry="50"
         rx="50"
         height="50"
         width="50" />
    </g>
    <g
       style="fill:#000000;fill-opacity:1;stroke:none"
       id="layer1-3-0-7-5-4-3-9"
       transform="matrix(0,0.2,-0.2,0,114.42132,18.845388)">
      <rect
         style="fill:#000000;fill-opacity:1;stroke:none"
         id="rect3388-2-2-39-3-6-4-8"
         y="222.1066"
         x="206.24184"
         ry="50"
         rx="50"
         height="50"
         width="50" />
    </g>
    <g
       style="fill:#000000;fill-opacity:1;stroke:none"
       id="layer1-3-0-7-5-2-9"
       transform="matrix(0,0.2,-0.2,0,54.42132,-31.154617)">
      <rect
         style="fill:#000000;fill-opacity:1;stroke:none"
         id="rect3388-2-2-39-3-0-0"
         y="222.1066"
         x="206.24184"
         ry="50"
         rx="50"
         height="50"
         width="50" />
    </g>
    <g
       style="fill:#000000;fill-opacity:1;stroke:none"
       id="layer1-3-0-7-5-4-2-0"
       transform="matrix(0,0.2,-0.2,0,54.42132,-21.154617)">
      <rect
         style="fill:#000000;fill-opacity:1;stroke:none"
         id="rect3388-2-2-39-3-6-66-3"
         y="222.1066"
         x="206.24184"
         ry="50"
         rx="50"
         height="50"
         width="50" />
    </g>
    <g
       style="fill:#000000;fill-opacity:1;stroke:none"
       id="layer1-3-0-7-5-4-7-1-4"
       transform="matrix(0,0.2,-0.2,0,54.42132,-11.154615)">
      <rect
         style="fill:#000000;fill-opacity:1;stroke:none"
         id="rect3388-2-2-39-3-6-0-8-6"
         y="222.1066"
         x="206.24184"
         ry="50"
         rx="50"
         height="50"
         width="50" />
    </g>
    <g
       style="fill:#000000;fill-opacity:1;stroke:none"
       id="layer1-3-0-7-5-4-4-6-3"
       transform="matrix(0,0.2,-0.2,0,54.42132,-1.1546183)">
      <rect
         style="fill:#000000;fill-opacity:1;stroke:none"
         id="rect3388-2-2-39-3-6-9-5-3"
         y="222.1066"
         x="206.24184"
         ry="50"
         rx="50"
         height="50"
         width="50" />
    </g>
    <g
       style="fill:#000000;fill-opacity:1;stroke:none"
       id="layer1-3-0-7-5-4-6-0-1"
       transform="matrix(0,0.2,-0.2,0,54.42132,8.8453837)">
      <rect
         style="fill:#000000;fill-opacity:1;stroke:none"
         id="rect3388-2-2-39-3-6-6-5-2"
         y="222.1066"
         x="206.24184"
         ry="50"
         rx="50"
         height="50"
         width="50" />
    </g>
    <g
       style="fill:#000000;fill-opacity:1;stroke:none"
       id="layer1-3-0-7-5-4-3-9-1"
       transform="matrix(0,0.2,-0.2,0,54.42132,18.845384)">
      <rect
         style="fill:#000000;fill-opacity:1;stroke:none"
         id="rect3388-2-2-39-3-6-4-8-0"
         y="222.1066"
         x="206.24184"
         ry="50"
         rx="50"
         height="50"
         width="50" />
    </g>
    <g
       style="fill:#000000;fill-opacity:1;stroke:none"
       id="layer1-3-0-7-5-4-9"
       transform="matrix(0.2,0,0,0.2,-31.248366,15.67243)">
      <rect
         style="fill:#000000;fill-opacity:1;stroke:none"
         id="rect3388-2-2-39-3-6-7"
         y="222.1066"
         x="206.24184"
         ry="50"
         rx="50"
         height="50"
         width="50" />
    </g>
    <g
       style="fill:#000000;fill-opacity:1;stroke:none"
       id="layer1-3-0-7-5-4-7-8"
       transform="matrix(0.2,0,0,0.2,-21.248364,15.67243)">
      <rect
         style="fill:#000000;fill-opacity:1;stroke:none"
         id="rect3388-2-2-39-3-6-0-3"
         y="222.1066"
         x="206.24184"
         ry="50"
         rx="50"
         height="50"
         width="50" />
    </g>
    <g
       style="fill:#000000;fill-opacity:1;stroke:none"
       id="layer1-3-0-7-5-4-4-0"
       transform="matrix(0.2,0,0,0.2,-11.248367,15.67243)">
      <rect
         style="fill:#000000;fill-opacity:1;stroke:none"
         id="rect3388-2-2-39-3-6-9-6"
         y="222.1066"
         x="206.24184"
         ry="50"
         rx="50"
         height="50"
         width="50" />
    </g>
    <g
       style="fill:#000000;fill-opacity:1;stroke:none"
       id="layer1-3-0-7-5-4-6-7"
       transform="matrix(0.2,0,0,0.2,-1.2483643,15.67243)">
      <rect
         style="fill:#000000;fill-opacity:1;stroke:none"
         id="rect3388-2-2-39-3-6-6-7"
         y="222.1066"
         x="206.24184"
         ry="50"
         rx="50"
         height="50"
         width="50" />
    </g>
    <g
       style="fill:#000000;fill-opacity:1;stroke:none"
       id="layer1-3-0-7-5-4-3-1"
       transform="matrix(0.2,0,0,0.2,8.7516357,15.67243)">
      <rect
         style="fill:#000000;fill-opacity:1;stroke:none"
         id="rect3388-2-2-39-3-6-4-5"
         y="222.1066"
         x="206.24184"
         ry="50"
         rx="50"
         height="50"
         width="50" />
    </g>
  </g>
</svg>
