<?xml version="1.0" encoding="UTF-8" standalone="no"?>
<!-- Created with Inkscape (http://www.inkscape.org/) -->

<svg
   xmlns:dc="http://purl.org/dc/elements/1.1/"
   xmlns:cc="http://creativecommons.org/ns#"
   xmlns:rdf="http://www.w3.org/1999/02/22-rdf-syntax-ns#"
   xmlns:svg="http://www.w3.org/2000/svg"
   xmlns="http://www.w3.org/2000/svg"
   xmlns:sodipodi="http://sodipodi.sourceforge.net/DTD/sodipodi-0.dtd"
   xmlns:inkscape="http://www.inkscape.org/namespaces/inkscape"
   version="1.1"
   width="70.125"
   height="70.09375"
   id="svg3001"
   inkscape:version="0.48.2 r9819"
   sodipodi:docname="outer.svg">
  <sodipodi:namedview
     pagecolor="#ffffff"
     bordercolor="#666666"
     borderopacity="1"
     objecttolerance="10"
     gridtolerance="10"
     guidetolerance="10"
     inkscape:pageopacity="0"
     inkscape:pageshadow="2"
     inkscape:window-width="1366"
     inkscape:window-height="744"
     id="namedview29"
     showgrid="true"
     inkscape:zoom="8"
     inkscape:cx="35.062131"
     inkscape:cy="62.018173"
     inkscape:window-x="0"
     inkscape:window-y="24"
     inkscape:window-maximized="1"
     inkscape:current-layer="svg3001"
     inkscape:object-paths="false"
     inkscape:snap-nodes="true">
    <inkscape:grid
       type="xygrid"
       id="grid3000" />
  </sodipodi:namedview>
  <defs
     id="defs3003" />
  <metadata
     id="metadata3006">
    <rdf:RDF>
      <cc:Work
         rdf:about="">
        <dc:format>image/svg+xml</dc:format>
        <dc:type
           rdf:resource="http://purl.org/dc/dcmitype/StillImage" />
        <dc:title />
      </cc:Work>
    </rdf:RDF>
  </metadata>
  <path
     id="rect3011-7-9"
     style="fill:#000000;fill-opacity:1;stroke:#000000;stroke-width:0;stroke-miterlimit:4;stroke-opacity:1;stroke-dasharray:none"
     d="m 10.001867,50.093748 -10.00000047,0 0,10 10.00000047,0 z m 0,-9.999998 -10.00000047,0 0,9.999999 10.00000047,0 z m 60,20.000001 -10,0 0,9.999999 10,0 z m -10,0 -9.999999,0 0,9.999999 9.999999,0 z m -9.999998,0 -10,0 0,9.999999 10,0 z m -30.000004,0 -0.190938,0 c 0,0 -4.621122,0.409274 -7.366198,-2.114278 C 9.7673335,55.51814 10.001867,50.34375 10.001867,50.34375 l -1e-6,19.75 9.999999,0 z m 20.000003,0 -10.000001,0 0,9.999999 10.000001,0 z m -10,0 -10,0 0,9.999999 10,0 z m -20.000001,-10e-7 -10.00000047,10e-7 c 0,0 -0.333657,5.091884 2.28124997,7.656249 2.770825,2.71727 7.7187505,2.34375 7.7187505,2.34375 z m 60,-10.000002 -10,0 0,10 10,0 z m 0,-9.999998 -10,0 0,9.999999 10,0 z m 0,-10.000002 -10,0 0,9.999999 10,0 z m 0,-10.000001 -10,3e-6 0,9.999997 10,0 z m 0,-9.999997 -10,0 0,10 10,-1e-6 z m -2.276,-7.5251262 c -2.879951,-2.89930774 -7.724,-2.4748738 -7.724,-2.4748738 l 0,9.999999 10,0 c 0,0 0.313639,-4.9180794 -2.276,-7.5251252 z m -7.724,-2.4748738 -9.999999,0 0,9.999999 -1e-6,10e-7 c 0,0 5.135076,-0.03067 7.698223,2.572303 2.72131,2.763597 2.301777,7.427697 2.301777,7.427697 z m -9.999998,0 -10,0 0,9.999999 9.999998,10e-7 z m -40.000002,29.999998 -10.00000047,0 0,9.999999 10.00000047,0 z m 0,-10.000001 -10.00000047,0 0,10 10.00000047,0 z m 0,-9.999997 -10.00000047,0 0,9.999999 10.00000047,0 z m 9.999998,-10 -9.999999,0 0,9.999999 9.999999,0 z m 20.000003,0 -10.000001,0 0,9.999999 10.000001,0 z m -10,0 -10,0 0,9.999999 10,0 z m -20.000001,0 -10.00000047,0 0,9.999999 10.00000047,0 z"
     inkscape:connector-curvature="0"
     sodipodi:nodetypes="cccccccccccccccccccccccccccsccccccccccccccccscccccccccccccccccccccccccccscccsccccscccccccccccccccccccccccccccccccccccccccccc" />
</svg>
