<?xml version="1.0" encoding="UTF-8" standalone="no"?>
<!-- Created with Inkscape (http://www.inkscape.org/) -->

<svg
   xmlns:dc="http://purl.org/dc/elements/1.1/"
   xmlns:cc="http://creativecommons.org/ns#"
   xmlns:rdf="http://www.w3.org/1999/02/22-rdf-syntax-ns#"
   xmlns:svg="http://www.w3.org/2000/svg"
   xmlns="http://www.w3.org/2000/svg"
   xmlns:sodipodi="http://sodipodi.sourceforge.net/DTD/sodipodi-0.dtd"
   xmlns:inkscape="http://www.inkscape.org/namespaces/inkscape"
   version="1.1"
   width="70.125"
   height="70.09375"
   id="svg3001"
   inkscape:version="0.48.2 r9819"
   sodipodi:docname="outer.svg">
  <sodipodi:namedview
     pagecolor="#ffffff"
     bordercolor="#666666"
     borderopacity="1"
     objecttolerance="10"
     gridtolerance="10"
     guidetolerance="10"
     inkscape:pageopacity="0"
     inkscape:pageshadow="2"
     inkscape:window-width="1366"
     inkscape:window-height="744"
     id="namedview29"
     showgrid="false"
     inkscape:zoom="3.3669193"
     inkscape:cx="35.0625"
     inkscape:cy="35.046875"
     inkscape:window-x="0"
     inkscape:window-y="24"
     inkscape:window-maximized="1"
     inkscape:current-layer="svg3001" />
  <defs
     id="defs3003" />
  <metadata
     id="metadata3006">
    <rdf:RDF>
      <cc:Work
         rdf:about="">
        <dc:format>image/svg+xml</dc:format>
        <dc:type
           rdf:resource="http://purl.org/dc/dcmitype/StillImage" />
        <dc:title />
      </cc:Work>
    </rdf:RDF>
  </metadata>
  <path
     id="rect3011-7-9"
     style="fill:#000000;fill-opacity:1;stroke:#000000;stroke-width:0;stroke-miterlimit:4;stroke-opacity:1;stroke-dasharray:none"
     d="m 60,50.093748 10,0 0,10 -10,0 z m 0,-9.999998 10,0 0,9.999999 -10,0 z m -60,20.000001 10,0 0,9.999999 -10,0 z m 10,0 9.999999,0 0,9.999999 -9.999999,0 z m 9.999998,0 10,0 0,9.999999 -10,0 z m 30.000004,0 9.999999,0 0,9.999999 -9.999999,0 z m -20.000003,0 10.000001,0 0,9.999999 -10.000001,0 z m 10,0 10,0 0,9.999999 -10,0 z m 20.000001,0 10,0 0,9.999999 -10,0 z M 0,50.093748 l 10,0 0,10 -10,0 z m 0,-9.999998 10,0 0,9.999999 -10,0 z m 0,-10.000002 10,0 0,9.999999 -10,0 z m 0,-10.000001 10,0 0,10 -10,0 z m 0,-9.999997 10,0 0,9.999999 -10,0 z m 0,-10 10,0 0,9.999999 -10,0 z m 10,0 9.999999,0 0,9.999999 -9.999999,0 z m 9.999998,0 10,0 0,9.999999 -10,0 z M 60,30.093748 l 10,0 0,9.999999 -10,0 z m 0,-10.000001 10,0 0,10 -10,0 z m 0,-9.999997 10,0 0,9.999999 -10,0 z m -9.999998,-10 9.999999,0 0,9.999999 -9.999999,0 z m -20.000003,0 10.000001,0 0,9.999999 -10.000001,0 z m 10,0 10,0 0,9.999999 -10,0 z m 20.000001,0 10,0 0,9.999999 -10,0 z"
     inkscape:connector-curvature="0" />
</svg>
