<?xml version="1.0" encoding="UTF-8" standalone="no"?>
<!-- Created with Inkscape (http://www.inkscape.org/) -->

<svg
   xmlns:dc="http://purl.org/dc/elements/1.1/"
   xmlns:cc="http://creativecommons.org/ns#"
   xmlns:rdf="http://www.w3.org/1999/02/22-rdf-syntax-ns#"
   xmlns:svg="http://www.w3.org/2000/svg"
   xmlns="http://www.w3.org/2000/svg"
   xmlns:sodipodi="http://sodipodi.sourceforge.net/DTD/sodipodi-0.dtd"
   xmlns:inkscape="http://www.inkscape.org/namespaces/inkscape"
   version="1.1"
   width="10"
   height="10"
   viewBox="0 0 9.9999999 10"
   id="svg2"
   inkscape:version="0.48.2 r9819"
   sodipodi:docname="2a1b1a.svg">
  <sodipodi:namedview
     pagecolor="#ffffff"
     bordercolor="#666666"
     borderopacity="1"
     objecttolerance="10"
     gridtolerance="10"
     guidetolerance="10"
     inkscape:pageopacity="0"
     inkscape:pageshadow="2"
     inkscape:window-width="1366"
     inkscape:window-height="744"
     id="namedview6"
     showgrid="false"
     inkscape:zoom="23.6"
     inkscape:cx="1.1545256"
     inkscape:cy="5"
     inkscape:window-x="0"
     inkscape:window-y="24"
     inkscape:window-maximized="1"
     inkscape:current-layer="svg2"
     inkscape:object-paths="true" />
  <defs
     id="defs4">
    <marker
       inkscape:stockid="Arrow1Lstart"
       orient="auto"
       refY="0.0"
       refX="0.0"
       id="Arrow1Lstart"
       style="overflow:visible">
      <path
         id="path3933"
         d="M 0.0,0.0 L 5.0,-5.0 L -12.5,0.0 L 5.0,5.0 L 0.0,0.0 z "
         style="fill-rule:evenodd;stroke:#000000;stroke-width:1.0pt;marker-start:none"
         transform="scale(0.8) translate(12.5,0)" />
    </marker>
  </defs>
  <metadata
     id="metadata7">
    <rdf:RDF>
      <cc:Work
         rdf:about="">
        <dc:format>image/svg+xml</dc:format>
        <dc:type
           rdf:resource="http://purl.org/dc/dcmitype/StillImage" />
        <dc:title />
      </cc:Work>
    </rdf:RDF>
  </metadata>
  <path
     id="rect2984-6"
     transform="matrix(0,-1,1,0,0,0)"
     style="fill:#000000;fill-opacity:1;stroke:#000000;stroke-width:0;stroke-linecap:butt;stroke-linejoin:miter;stroke-miterlimit:4;stroke-opacity:1"
     d="m -9.964759,-0.91525418 10.90293146,0 c 0.026888,0 0.0485343,0.0216463 0.0485343,0.0485343 l 0,0.90293146 c 0,0.02688799 -0.0216463,0.04853427 -0.0485343,0.04853427 l -10.90293146,0 c -0.026888,0 -0.048534,-0.02164628 -0.048534,-0.04853427 l 0,-0.90293146 c 0,-0.026888 0.021646,-0.0485343 0.048534,-0.0485343 z m 10.95146573,0.9637884 0,9.90293148 c 0,0.026888 -0.0216463,0.048534 -0.0485343,0.048534 l -0.90293146,0 c -0.02688798,0 -0.04853427,-0.021646 -0.04853427,-0.048534 l 0,-9.90293148 c 0,-0.02688799 0.02164629,-0.04853427 0.04853427,-0.04853427 l 0.90293146,0 c 0.026888,0 0.0485343,0.02164628 0.0485343,0.04853427 z M 0,-5.0000001e-8 0,10 l -10,0 0,-10.00000005 z" />
</svg>
