<?xml version="1.0" encoding="UTF-8" standalone="no"?>
<!-- Created with Inkscape (http://www.inkscape.org/) -->

<svg
   xmlns:dc="http://purl.org/dc/elements/1.1/"
   xmlns:cc="http://creativecommons.org/ns#"
   xmlns:rdf="http://www.w3.org/1999/02/22-rdf-syntax-ns#"
   xmlns:svg="http://www.w3.org/2000/svg"
   xmlns="http://www.w3.org/2000/svg"
   xmlns:sodipodi="http://sodipodi.sourceforge.net/DTD/sodipodi-0.dtd"
   xmlns:inkscape="http://www.inkscape.org/namespaces/inkscape"
   version="1.1"
   width="30"
   height="30"
   id="svg4173"
   inkscape:version="0.48.2 r9819"
   sodipodi:docname="inner.svg">
  <sodipodi:namedview
     pagecolor="#ffffff"
     bordercolor="#666666"
     borderopacity="1"
     objecttolerance="10"
     gridtolerance="10"
     guidetolerance="10"
     inkscape:pageopacity="0"
     inkscape:pageshadow="2"
     inkscape:window-width="1366"
     inkscape:window-height="744"
     id="namedview14"
     showgrid="false"
     inkscape:zoom="7.8666667"
     inkscape:cx="15"
     inkscape:cy="15"
     inkscape:window-x="0"
     inkscape:window-y="24"
     inkscape:window-maximized="1"
     inkscape:current-layer="svg4173" />
  <defs
     id="defs4175" />
  <metadata
     id="metadata4178">
    <rdf:RDF>
      <cc:Work
         rdf:about="">
        <dc:format>image/svg+xml</dc:format>
        <dc:type
           rdf:resource="http://purl.org/dc/dcmitype/StillImage" />
        <dc:title />
      </cc:Work>
    </rdf:RDF>
  </metadata>
  <path
     style="fill:#000000;fill-opacity:1;stroke:#000000;stroke-width:0.11401537;stroke-linecap:butt;stroke-linejoin:miter;stroke-miterlimit:4;stroke-opacity:1;stroke-dasharray:none"
     id="path2990"
     d="m 11.13511,1.3305443 c 0.492449,-0.80537146 6.847754,-0.61596814 7.499325,-0.2146679 1.369796,0.8436539 1.860143,2.1853322 1.221243,8.0036331 -3.043596,1.6841095 -8.964507,1.4635035 -8.964507,1.4635035 0,0 -0.726554,-7.6652867 0.243939,-9.2524687 z"
     inkscape:connector-curvature="0" />
  <path
     style="fill:#000000;fill-opacity:1;stroke:#000000;stroke-width:0.10361728;stroke-linecap:butt;stroke-linejoin:miter;stroke-miterlimit:4;stroke-opacity:1;stroke-dasharray:none"
     id="path2990-6"
     d="M 20.771321,1.481368 C 21.210616,0.69629206 26.745654,0.31871786 27.405539,0.49434806 29.411931,1.0283551 29.985636,1.5843981 28.586714,7.6428291 27.270032,10.627251 20.876552,10.442826 20.63494,9.9221871 19.562151,7.6104801 19.905584,3.0285551 20.771321,1.481368 z"
     inkscape:connector-curvature="0" />
  <path
     style="fill:#000000;fill-opacity:1;stroke:#000000;stroke-width:0.11025388;stroke-linecap:butt;stroke-linejoin:miter;stroke-miterlimit:4;stroke-opacity:1;stroke-dasharray:none"
     id="path2990-7"
     d="m 11.116704,1.5714283 c 0.793506,0.4719064 0.323001,6.1556323 0.02413,6.8271629 C 10.232118,10.440391 9.5284765,11.013103 3.0862968,9.4122588 0.01328576,7.980429 1.1293314,0.5696244 1.7408642,0.33632538 4.4561492,-0.69955369 9.5529029,0.6414202 11.116702,1.5714283 z"
     inkscape:connector-curvature="0" />
  <path
     style="fill:#000000;fill-opacity:1;stroke:#000000;stroke-width:0.10837895;stroke-linecap:butt;stroke-linejoin:miter;stroke-miterlimit:4;stroke-opacity:1;stroke-dasharray:none"
     id="path2990-3"
     d="m 19.824614,10.555446 c 0.796573,0.351318 0.509263,5.964853 0.235587,6.661624 -0.832117,2.118545 -1.507728,2.77464 -7.905614,2.099826 -3.0726127,-0.974225 -2.067371,-7.535798 -1.471995,-7.847848 2.643545,-1.385542 7.57218,-1.6059579 9.142022,-0.913602 z"
     inkscape:connector-curvature="0" />
  <path
     style="fill:#000000;fill-opacity:1;stroke:#000000;stroke-width:0.11290659;stroke-linecap:butt;stroke-linejoin:miter;stroke-miterlimit:4;stroke-opacity:1;stroke-dasharray:none"
     id="path2990-2"
     d="m 1.9825677,20.01283 c 0.492449,-0.789783 6.8477539,-0.604046 7.4993249,-0.210513 1.3697964,0.827325 1.8601434,2.143036 1.2212434,7.848723 -3.0435964,1.651513 -8.9645073,1.435177 -8.9645073,1.435177 0,0 -0.726554,-7.516924 0.243939,-9.073387 z"
     inkscape:connector-curvature="0" />
  <path
     style="fill:#000000;fill-opacity:1;stroke:#000000;stroke-width:0.10361728;stroke-linecap:butt;stroke-linejoin:miter;stroke-miterlimit:4;stroke-opacity:1;stroke-dasharray:none"
     id="path2990-7-7"
     d="m 19.928824,20.958828 c 0.727059,0.454897 0.295954,5.933759 0.02211,6.581085 -0.832621,1.968205 -1.477341,2.520275 -7.380062,0.977131 -2.8156823,-1.380221 -1.793092,-8.523911 -1.232768,-8.748801 2.487911,-0.998542 7.15787,0.294098 8.590718,1.190585 z"
     inkscape:connector-curvature="0" />
  <path
     style="fill:#000000;fill-opacity:1;stroke:#000000;stroke-width:0.10680097;stroke-linecap:butt;stroke-linejoin:miter;stroke-miterlimit:4;stroke-opacity:1;stroke-dasharray:none"
     id="path2990-3-9"
     d="m 29.266188,19.568104 c 0.747925,0.363352 0.478161,6.169183 0.221199,6.889823 -0.781298,2.191119 -1.415649,2.869688 -7.422806,2.171758 -2.884963,-1.007598 -1.941113,-7.793944 -1.382098,-8.116684 2.4821,-1.433004 7.109735,-1.660971 8.583705,-0.944897 z"
     inkscape:connector-curvature="0" />
  <path
     style="fill:#000000;fill-opacity:1;stroke:#000000;stroke-width:0.11290659;stroke-linecap:butt;stroke-linejoin:miter;stroke-miterlimit:4;stroke-opacity:1;stroke-dasharray:none"
     id="path2990-66"
     d="m 20.287653,10.733169 c 0.492449,-0.7897829 6.847754,-0.604046 7.499325,-0.210513 1.369796,0.827325 1.860143,2.143035 1.221243,7.848722 -3.043596,1.651514 -8.964507,1.435178 -8.964507,1.435178 0,0 -0.726554,-7.516925 0.243939,-9.073387 z"
     inkscape:connector-curvature="0" />
  <path
     style="fill:#000000;fill-opacity:1;stroke:#000000;stroke-width:0.10361728;stroke-linecap:butt;stroke-linejoin:miter;stroke-miterlimit:4;stroke-opacity:1;stroke-dasharray:none"
     id="path2990-30"
     d="m 11.507027,12.246961 c 0.600408,0.54259 -1.496362,5.608942 -1.9704044,6.171897 -1.441334,1.711678 -2.263071,2.126066 -7.78861,-0.263861 -2.44071214,-1.743753 0.760707,-8.2759773 1.397684,-8.3971943 2.828264,-0.5382241 7.1780804,1.4198503 8.3613304,2.4891583 z"
     inkscape:connector-curvature="0" />
</svg>
