<?xml version="1.0" encoding="UTF-8" standalone="no"?>
<!-- Created with Inkscape (http://www.inkscape.org/) -->

<svg
   xmlns:dc="http://purl.org/dc/elements/1.1/"
   xmlns:cc="http://creativecommons.org/ns#"
   xmlns:rdf="http://www.w3.org/1999/02/22-rdf-syntax-ns#"
   xmlns:svg="http://www.w3.org/2000/svg"
   xmlns="http://www.w3.org/2000/svg"
   xmlns:sodipodi="http://sodipodi.sourceforge.net/DTD/sodipodi-0.dtd"
   xmlns:inkscape="http://www.inkscape.org/namespaces/inkscape"
   version="1.1"
   width="70.125"
   height="70.09375"
   id="svg3001"
   inkscape:version="0.48.2 r9819"
   sodipodi:docname="outer.svg">
  <sodipodi:namedview
     pagecolor="#ffffff"
     bordercolor="#666666"
     borderopacity="1"
     objecttolerance="10"
     gridtolerance="10"
     guidetolerance="10"
     inkscape:pageopacity="0"
     inkscape:pageshadow="2"
     inkscape:window-width="1366"
     inkscape:window-height="744"
     id="namedview29"
     showgrid="false"
     inkscape:zoom="3.3669193"
     inkscape:cx="35.0625"
     inkscape:cy="35.046875"
     inkscape:window-x="0"
     inkscape:window-y="24"
     inkscape:window-maximized="1"
     inkscape:current-layer="svg3001" />
  <defs
     id="defs3003" />
  <metadata
     id="metadata3006">
    <rdf:RDF>
      <cc:Work
         rdf:about="">
        <dc:format>image/svg+xml</dc:format>
        <dc:type
           rdf:resource="http://purl.org/dc/dcmitype/StillImage" />
        <dc:title />
      </cc:Work>
    </rdf:RDF>
  </metadata>
  <path
     inkscape:connector-curvature="0"
     d="m 51.349719,1.5236046 c 0.492449,-0.78978301 6.847754,-0.60404601 7.499325,-0.210513 1.369796,0.827325 1.860143,2.143035 1.221243,7.848722 -3.043596,1.6515144 -8.964507,1.4351784 -8.964507,1.4351784 0,0 -0.726554,-7.5169254 0.243939,-9.0733874 z"
     id="path2990"
     style="fill:#000000;fill-opacity:1;stroke:#000000;stroke-width:0.11290659;stroke-linecap:butt;stroke-linejoin:miter;stroke-miterlimit:4;stroke-opacity:1;stroke-dasharray:none" />
  <path
     inkscape:connector-curvature="0"
     d="m 61.367286,1.5514646 c 0.439295,-0.78507601 5.974333,-1.16265001 6.634218,-0.98702001 2.006392,0.53400701 2.580097,1.09005101 1.181175,7.14848101 -1.316682,2.9844234 -7.710162,2.7999974 -7.951774,2.279359 -1.072789,-2.311708 -0.729356,-6.893633 0.136381,-8.44082 z"
     id="path2990-6"
     style="fill:#000000;fill-opacity:1;stroke:#000000;stroke-width:0.10361728;stroke-linecap:butt;stroke-linejoin:miter;stroke-miterlimit:4;stroke-opacity:1;stroke-dasharray:none" />
  <path
     inkscape:connector-curvature="0"
     d="m 50.058289,2.0882466 c 0.727059,0.454897 0.295954,5.933759 0.02211,6.581085 -0.832621,1.9682054 -1.477341,2.5202754 -7.380062,0.977131 -2.815682,-1.380221 -1.793092,-8.523911 -1.232768,-8.74880101 2.487911,-0.998542 7.15787,0.29409801 8.590718,1.19058501 z"
     id="path2990-7"
     style="fill:#000000;fill-opacity:1;stroke:#000000;stroke-width:0.10361728;stroke-linecap:butt;stroke-linejoin:miter;stroke-miterlimit:4;stroke-opacity:1;stroke-dasharray:none" />
  <path
     inkscape:connector-curvature="0"
     d="m 39.708817,1.0230005 c 0.747925,0.342012 0.478161,5.806865 0.221199,6.485181 -0.781298,2.062433 -1.415649,2.7011495 -7.422806,2.044209 -2.884963,-0.948421 -1.941113,-7.336201 -1.382098,-7.639986 2.4821,-1.34884403 7.109735,-1.56342203 8.583705,-0.889404 z"
     id="path2990-3"
     style="fill:#000000;fill-opacity:1;stroke:#000000;stroke-width:0.10361728;stroke-linecap:butt;stroke-linejoin:miter;stroke-miterlimit:4;stroke-opacity:1;stroke-dasharray:none" />
  <path
     inkscape:connector-curvature="0"
     d="m 11.181287,1.582927 c 0.492449,-0.78978298 6.847754,-0.60404598 7.499325,-0.210513 1.369796,0.827325 1.860143,2.143036 1.221243,7.848723 -3.043596,1.651513 -8.964507,1.435177 -8.964507,1.435177 0,0 -0.726554,-7.516924 0.243939,-9.073387 z"
     id="path2990-2"
     style="fill:#000000;fill-opacity:1;stroke:#000000;stroke-width:0.11290659;stroke-linecap:butt;stroke-linejoin:miter;stroke-miterlimit:4;stroke-opacity:1;stroke-dasharray:none" />
  <path
     inkscape:connector-curvature="0"
     d="m 70.071796,21.027733 c 0.727059,0.454897 0.295954,5.933759 0.02211,6.581085 -0.832621,1.968205 -1.477341,2.520275 -7.380062,0.977131 -2.815682,-1.380221 -1.793092,-8.523911 -1.232768,-8.748801 2.487911,-0.998542 7.15787,0.294098 8.590718,1.190585 z"
     id="path2990-7-7"
     style="fill:#000000;fill-opacity:1;stroke:#000000;stroke-width:0.10361728;stroke-linecap:butt;stroke-linejoin:miter;stroke-miterlimit:4;stroke-opacity:1;stroke-dasharray:none" />
  <path
     inkscape:connector-curvature="0"
     d="m 69.565146,10.34424 c 0.747925,0.342012 0.478161,5.806864 0.221199,6.48518 -0.781298,2.062433 -1.415649,2.70115 -7.422806,2.044209 -2.884963,-0.948421 -1.941113,-7.336201 -1.382098,-7.639986 2.4821,-1.3488434 7.109735,-1.5634224 8.583705,-0.889403 z"
     id="path2990-3-9"
     style="fill:#000000;fill-opacity:1;stroke:#000000;stroke-width:0.10361728;stroke-linecap:butt;stroke-linejoin:miter;stroke-miterlimit:4;stroke-opacity:1;stroke-dasharray:none" />
  <path
     inkscape:connector-curvature="0"
     d="m 1.2278972,1.5104959 c 0.492449,-0.78978301 6.847754,-0.60404601 7.499325,-0.210513 1.3697958,0.827325 1.8601428,2.143035 1.221243,7.848722 -3.043596,1.6515141 -8.96450701,1.4351781 -8.96450701,1.4351781 0,0 -0.726554,-7.5169251 0.24393901,-9.0733871 z"
     id="path2990-66"
     style="fill:#000000;fill-opacity:1;stroke:#000000;stroke-width:0.11290659;stroke-linecap:butt;stroke-linejoin:miter;stroke-miterlimit:4;stroke-opacity:1;stroke-dasharray:none" />
  <path
     inkscape:connector-curvature="0"
     d="m 30.932308,3.1941763 c 0.600408,0.54259 -1.496362,5.608942 -1.970404,6.171897 -1.441334,1.7116777 -2.263071,2.1260657 -7.78861,-0.263861 -2.440712,-1.743753 0.760707,-8.27597699 1.397684,-8.39719399 2.828264,-0.538224 7.17808,1.41984999 8.36133,2.48915799 z"
     id="path2990-30"
     style="fill:#000000;fill-opacity:1;stroke:#000000;stroke-width:0.10361728;stroke-linecap:butt;stroke-linejoin:miter;stroke-miterlimit:4;stroke-opacity:1;stroke-dasharray:none" />
  <path
     inkscape:connector-curvature="0"
     d="m 19.925941,69.168412 c -0.492449,0.789783 -6.847751,0.604046 -7.499321,0.210513 -1.3698,-0.827325 -1.86015,-2.143035 -1.22125,-7.848722 3.0436,-1.651515 8.96451,-1.435179 8.96451,-1.435179 0,0 0.726554,7.516926 -0.243939,9.073388 z"
     id="path2990-4"
     style="fill:#000000;fill-opacity:1;stroke:#000000;stroke-width:0.11290659;stroke-linecap:butt;stroke-linejoin:miter;stroke-miterlimit:4;stroke-opacity:1;stroke-dasharray:none" />
  <path
     inkscape:connector-curvature="0"
     d="m 9.6113621,68.546537 c -0.43929,0.785076 -5.97433,1.16265 -6.63421,0.98702 -2.00640002,-0.534007 -2.5801,-1.090051 -1.18118,-7.148481 1.31668,-2.984424 7.71016,-2.799998 7.9517705,-2.279359 1.0727904,2.311708 0.7293604,6.893633 -0.1363805,8.44082 z"
     id="path2990-6-0"
     style="fill:#000000;fill-opacity:1;stroke:#000000;stroke-width:0.10361728;stroke-linecap:butt;stroke-linejoin:miter;stroke-miterlimit:4;stroke-opacity:1;stroke-dasharray:none" />
  <path
     inkscape:connector-curvature="0"
     d="m 21.217371,68.60377 c -0.727059,-0.454897 -0.295954,-5.933759 -0.02211,-6.581085 0.832621,-1.968206 1.477341,-2.520276 7.380062,-0.977131 2.815682,1.380221 1.793092,8.523911 1.232768,8.748801 -2.487911,0.998542 -7.15787,-0.294098 -8.590718,-1.190585 z"
     id="path2990-7-9"
     style="fill:#000000;fill-opacity:1;stroke:#000000;stroke-width:0.10361728;stroke-linecap:butt;stroke-linejoin:miter;stroke-miterlimit:4;stroke-opacity:1;stroke-dasharray:none" />
  <path
     inkscape:connector-curvature="0"
     d="m 31.566843,69.669016 c -0.747925,-0.342012 -0.478161,-5.806865 -0.221199,-6.485181 0.781298,-2.062433 1.415649,-2.70115 7.422806,-2.044209 2.884963,0.948421 1.941113,7.336201 1.382098,7.639986 -2.4821,1.348844 -7.109735,1.563422 -8.583705,0.889404 z"
     id="path2990-3-92"
     style="fill:#000000;fill-opacity:1;stroke:#000000;stroke-width:0.10361728;stroke-linecap:butt;stroke-linejoin:miter;stroke-miterlimit:4;stroke-opacity:1;stroke-dasharray:none" />
  <path
     inkscape:connector-curvature="0"
     d="m 60.094373,69.109089 c -0.492449,0.789783 -6.847754,0.604046 -7.499325,0.210513 -1.369796,-0.827325 -1.860143,-2.143036 -1.221243,-7.848723 3.043596,-1.651513 8.964507,-1.435177 8.964507,-1.435177 0,0 0.726554,7.516924 -0.243939,9.073387 z"
     id="path2990-2-7"
     style="fill:#000000;fill-opacity:1;stroke:#000000;stroke-width:0.11290659;stroke-linecap:butt;stroke-linejoin:miter;stroke-miterlimit:4;stroke-opacity:1;stroke-dasharray:none" />
  <path
     inkscape:connector-curvature="0"
     d="m 70.047762,69.18152 c -0.492449,0.789783 -6.847754,0.604046 -7.499325,0.210513 -1.369795,-0.827325 -1.860142,-2.143035 -1.221242,-7.848722 3.043595,-1.651514 8.964506,-1.435178 8.964506,-1.435178 0,0 0.726554,7.516925 -0.243939,9.073387 z"
     id="path2990-66-4"
     style="fill:#000000;fill-opacity:1;stroke:#000000;stroke-width:0.11290659;stroke-linecap:butt;stroke-linejoin:miter;stroke-miterlimit:4;stroke-opacity:1;stroke-dasharray:none" />
  <path
     inkscape:connector-curvature="0"
     d="m 40.343352,67.49784 c -0.600408,-0.54259 1.496362,-5.608942 1.970404,-6.171897 1.441334,-1.711678 2.263071,-2.126066 7.78861,0.263861 2.440712,1.743753 -0.760707,8.275977 -1.397684,8.397194 -2.828264,0.538224 -7.17808,-1.41985 -8.36133,-2.489158 z"
     id="path2990-30-4"
     style="fill:#000000;fill-opacity:1;stroke:#000000;stroke-width:0.10361728;stroke-linecap:butt;stroke-linejoin:miter;stroke-miterlimit:4;stroke-opacity:1;stroke-dasharray:none" />
  <path
     inkscape:connector-curvature="0"
     d="m 69.695505,58.295529 c -0.439295,0.785076 -5.974333,1.16265 -6.634218,0.98702 -2.006392,-0.534007 -2.580097,-1.090051 -1.181175,-7.148481 1.316682,-2.984423 7.710162,-2.799997 7.951774,-2.279359 1.072789,2.311708 0.729356,6.893633 -0.136381,8.44082 z"
     id="path2990-6-8"
     style="fill:#000000;fill-opacity:1;stroke:#000000;stroke-width:0.10361728;stroke-linecap:butt;stroke-linejoin:miter;stroke-miterlimit:4;stroke-opacity:1;stroke-dasharray:none" />
  <path
     inkscape:connector-curvature="0"
     d="m 60.990995,38.819261 c -0.727059,-0.454897 -0.295954,-5.933759 -0.02211,-6.581085 0.832621,-1.968205 1.477341,-2.520275 7.380062,-0.977131 2.815682,1.380221 1.793092,8.523911 1.232768,8.748801 -2.487911,0.998542 -7.15787,-0.294098 -8.590718,-1.190585 z"
     id="path2990-7-7-6"
     style="fill:#000000;fill-opacity:1;stroke:#000000;stroke-width:0.10361728;stroke-linecap:butt;stroke-linejoin:miter;stroke-miterlimit:4;stroke-opacity:1;stroke-dasharray:none" />
  <path
     inkscape:connector-curvature="0"
     d="m 61.497645,49.502754 c -0.747925,-0.342012 -0.478161,-5.806864 -0.221199,-6.48518 0.781298,-2.062433 1.415649,-2.70115 7.422806,-2.044209 2.884963,0.948421 1.941113,7.336201 1.382098,7.639986 -2.4821,1.348843 -7.109735,1.563422 -8.583705,0.889403 z"
     id="path2990-3-9-0"
     style="fill:#000000;fill-opacity:1;stroke:#000000;stroke-width:0.10361728;stroke-linecap:butt;stroke-linejoin:miter;stroke-miterlimit:4;stroke-opacity:1;stroke-dasharray:none" />
  <path
     inkscape:connector-curvature="0"
     d="M 1.317226,58.17065 C 0.59016701,57.715753 1.021272,52.236891 1.295116,51.589565 2.1277371,49.62136 2.7724571,49.06929 8.6751781,50.612434 11.490861,51.992655 10.468271,59.136345 9.9079466,59.361235 7.4200351,60.359777 2.7500761,59.067137 1.317228,58.17065 z"
     id="path2990-7-7-0"
     style="fill:#000000;fill-opacity:1;stroke:#000000;stroke-width:0.10361728;stroke-linecap:butt;stroke-linejoin:miter;stroke-miterlimit:4;stroke-opacity:1;stroke-dasharray:none" />
  <path
     inkscape:connector-curvature="0"
     d="m 9.9738989,11.039016 c 0.7479251,0.342012 0.4781611,5.806863 0.2211991,6.485179 -0.7812981,2.062433 -1.4156491,2.70115 -7.4228061,2.044209 -2.88496303,-0.948421 -1.94111303,-7.336201 -1.382098,-7.639986 2.4821,-1.348842 7.109735,-1.563421 8.583705,-0.889402 z"
     id="path2990-3-9-7"
     style="fill:#000000;fill-opacity:1;stroke:#000000;stroke-width:0.10361728;stroke-linecap:butt;stroke-linejoin:miter;stroke-miterlimit:4;stroke-opacity:1;stroke-dasharray:none" />
  <path
     inkscape:connector-curvature="0"
     d="m 1.693517,20.605846 c 0.4392951,-0.785076 5.9743331,-1.16265 6.6342181,-0.98702 2.0063929,0.534007 2.5800979,1.090051 1.181175,7.148481 -1.316682,2.984423 -7.710162,2.799997 -7.9517741,2.279359 -1.07278899,-2.311708 -0.72935602,-6.893633 0.136381,-8.44082 z"
     id="path2990-6-8-7"
     style="fill:#000000;fill-opacity:1;stroke:#000000;stroke-width:0.10361728;stroke-linecap:butt;stroke-linejoin:miter;stroke-miterlimit:4;stroke-opacity:1;stroke-dasharray:none" />
  <path
     inkscape:connector-curvature="0"
     d="m 10.398028,40.973136 c 0.727059,0.454897 0.295954,5.933759 0.02211,6.581085 -0.8326219,1.968205 -1.4773419,2.520275 -7.3800629,0.977131 -2.81568209,-1.380221 -1.7930921,-8.523911 -1.232768,-8.748801 2.487911,-0.998542 7.15787,0.294098 8.5907189,1.190585 z"
     id="path2990-7-7-6-9"
     style="fill:#000000;fill-opacity:1;stroke:#000000;stroke-width:0.10361728;stroke-linecap:butt;stroke-linejoin:miter;stroke-miterlimit:4;stroke-opacity:1;stroke-dasharray:none" />
  <path
     inkscape:connector-curvature="0"
     d="m 10.188385,29.992636 c 0.747925,0.342012 0.478161,5.806864 0.221199,6.48518 -0.7812985,2.062433 -1.4156495,2.70115 -7.4228065,2.044209 C 0.10181443,37.573604 1.0456644,31.185824 1.6046794,30.882039 4.0867795,29.533196 8.7144145,29.318617 10.188385,29.992636 z"
     id="path2990-3-9-0-9"
     style="fill:#000000;fill-opacity:1;stroke:#000000;stroke-width:0.10361728;stroke-linecap:butt;stroke-linejoin:miter;stroke-miterlimit:4;stroke-opacity:1;stroke-dasharray:none" />
</svg>
