<?xml version="1.0" encoding="UTF-8" standalone="no"?>
<!-- Created with Inkscape (http://www.inkscape.org/) -->

<svg
   xmlns:dc="http://purl.org/dc/elements/1.1/"
   xmlns:cc="http://creativecommons.org/ns#"
   xmlns:rdf="http://www.w3.org/1999/02/22-rdf-syntax-ns#"
   xmlns:svg="http://www.w3.org/2000/svg"
   xmlns="http://www.w3.org/2000/svg"
   xmlns:sodipodi="http://sodipodi.sourceforge.net/DTD/sodipodi-0.dtd"
   xmlns:inkscape="http://www.inkscape.org/namespaces/inkscape"
   version="1.1"
   width="30"
   height="30"
   id="svg4173"
   inkscape:version="0.48.2 r9819"
   sodipodi:docname="inner.svg">
  <sodipodi:namedview
     pagecolor="#ffffff"
     bordercolor="#666666"
     borderopacity="1"
     objecttolerance="10"
     gridtolerance="10"
     guidetolerance="10"
     inkscape:pageopacity="0"
     inkscape:pageshadow="2"
     inkscape:window-width="1366"
     inkscape:window-height="744"
     id="namedview14"
     showgrid="true"
     inkscape:zoom="15.733333"
     inkscape:cx="15.450794"
     inkscape:cy="12.844409"
     inkscape:window-x="0"
     inkscape:window-y="24"
     inkscape:window-maximized="1"
     inkscape:current-layer="svg4173">
    <inkscape:grid
       type="xygrid"
       id="grid2982" />
  </sodipodi:namedview>
  <defs
     id="defs4175" />
  <metadata
     id="metadata4178">
    <rdf:RDF>
      <cc:Work
         rdf:about="">
        <dc:format>image/svg+xml</dc:format>
        <dc:type
           rdf:resource="http://purl.org/dc/dcmitype/StillImage" />
        <dc:title />
      </cc:Work>
    </rdf:RDF>
  </metadata>
  <path
     style="fill:#000000;fill-opacity:1;stroke:none"
     d="M 0.05249009,0 C 0.05249009,0 9.9181363,4 15,4 20.081864,4 29.94751,0 29.94751,0 29.976021,-0.00572216 30,0.02341058 30,0.05249009 30,0.05249009 26,9.9181363 26,15 26,20.081864 30,29.94751 30,29.94751 30.005722,29.97602 29.976589,30 29.94751,30 29.94751,30 20.081864,26 15,26 9.9181363,26 0.05249009,30 0.05249009,30 0.02397908,30.005722 0,29.976589 0,29.94751 0,29.94751 4,20.081864 4,15 4,9.9181363 0,0.05249009 0,0.05249009 -0.00572221,0.02397915 0.02341058,0 0.05249009,0 z"
     id="rect2993"
     inkscape:connector-curvature="0"
     sodipodi:nodetypes="sssssssssssss" />
</svg>
