<?xml version="1.0" encoding="UTF-8" standalone="no"?>
<!-- Created with Inkscape (http://www.inkscape.org/) -->

<svg
   xmlns:dc="http://purl.org/dc/elements/1.1/"
   xmlns:cc="http://creativecommons.org/ns#"
   xmlns:rdf="http://www.w3.org/1999/02/22-rdf-syntax-ns#"
   xmlns:svg="http://www.w3.org/2000/svg"
   xmlns="http://www.w3.org/2000/svg"
   xmlns:sodipodi="http://sodipodi.sourceforge.net/DTD/sodipodi-0.dtd"
   xmlns:inkscape="http://www.inkscape.org/namespaces/inkscape"
   version="1.1"
   width="70.125"
   height="70.09375"
   id="svg3001"
   inkscape:version="0.48.2 r9819"
   sodipodi:docname="outer.svg">
  <sodipodi:namedview
     pagecolor="#ffffff"
     bordercolor="#666666"
     borderopacity="1"
     objecttolerance="10"
     gridtolerance="10"
     guidetolerance="10"
     inkscape:pageopacity="0"
     inkscape:pageshadow="2"
     inkscape:window-width="1366"
     inkscape:window-height="744"
     id="namedview29"
     showgrid="true"
     inkscape:zoom="9.5230859"
     inkscape:cx="28.782789"
     inkscape:cy="33.733621"
     inkscape:window-x="0"
     inkscape:window-y="24"
     inkscape:window-maximized="1"
     inkscape:current-layer="svg3001">
    <inkscape:grid
       type="xygrid"
       id="grid2982" />
  </sodipodi:namedview>
  <defs
     id="defs3003" />
  <metadata
     id="metadata3006">
    <rdf:RDF>
      <cc:Work
         rdf:about="">
        <dc:format>image/svg+xml</dc:format>
        <dc:type
           rdf:resource="http://purl.org/dc/dcmitype/StillImage" />
        <dc:title />
      </cc:Work>
    </rdf:RDF>
  </metadata>
  <path
     id="rect3011-7-9"
     style="fill:#000000;fill-opacity:1;stroke:#000000;stroke-width:0;stroke-miterlimit:4;stroke-opacity:1;stroke-dasharray:none"
     d="m 0,60.093751 10.080766,0 c 0,0 16.552845,-4.998397 24.919234,-5.000001 8.393119,-0.0016 25,5 25,5 l 0,10 -60,0 z m 60.000001,9.999999 c -40.000001,0 -20,0 0,0 z m -10e-7,0 c -40,0 -20,0 0,0 z M 0,60.093748 c 0,6.666668 0,3.333334 0,0 z m 0,-49.999998 10,0 c 0,0 5,16.606881 5,25 0,8.393119 -5,25 -5,25 l -10,0 z m 0,-10 10.080766,0 49.919234,0 0,10 c 0,0 -16.606881,4.999519 -25,5 -8.401142,4.81e-4 -25.024242,-5.000001 -25.024242,-5.000001 l -9.975758,0 z m 60,0 10,0 0,70 -10,0 0,-10 c 0,0 -5.002905,-16.606882 -5,-25 0.0029,-8.344982 5,-24.854548 5,-24.854548 z"
     inkscape:connector-curvature="0"
     sodipodi:nodetypes="ccsccccccccccccscccccccsccccccccscc" />
</svg>
