<?xml version="1.0" encoding="UTF-8" standalone="no"?>
<!-- Created with Inkscape (http://www.inkscape.org/) -->

<svg
   xmlns:dc="http://purl.org/dc/elements/1.1/"
   xmlns:cc="http://creativecommons.org/ns#"
   xmlns:rdf="http://www.w3.org/1999/02/22-rdf-syntax-ns#"
   xmlns:svg="http://www.w3.org/2000/svg"
   xmlns="http://www.w3.org/2000/svg"
   version="1.1"
   width="70.125"
   height="70.09375"
   id="svg3001">
  <defs
     id="defs3003" />
  <metadata
     id="metadata3006">
    <rdf:RDF>
      <cc:Work
         rdf:about="">
        <dc:format>image/svg+xml</dc:format>
        <dc:type
           rdf:resource="http://purl.org/dc/dcmitype/StillImage" />
        <dc:title></dc:title>
      </cc:Work>
    </rdf:RDF>
  </metadata>
  <rect
     width="10"
     height="10"
     rx="0"
     ry="0.049504954"
     x="60"
     y="0.09375"
     id="rect3011"
     style="fill:#000000;fill-opacity:1;stroke:none" />
  <rect
     width="10"
     height="10"
     rx="0"
     ry="0.049504954"
     x="40"
     y="0.09375"
     id="rect3011-6"
     style="fill:#000000;fill-opacity:1;stroke:none" />
  <rect
     width="10"
     height="10"
     rx="0"
     ry="0.049504954"
     x="30"
     y="0.09375"
     id="rect3011-5"
     style="fill:#000000;fill-opacity:1;stroke:none" />
  <rect
     width="10"
     height="10"
     rx="0"
     ry="0.049504954"
     x="50"
     y="0.09375"
     id="rect3011-2"
     style="fill:#000000;fill-opacity:1;stroke:none" />
  <rect
     width="10"
     height="10"
     rx="0"
     ry="0.049504954"
     x="60"
     y="10.09375"
     id="rect3011-28"
     style="fill:#000000;fill-opacity:1;stroke:none" />
  <rect
     width="10"
     height="10"
     rx="0"
     ry="0.049504954"
     x="60"
     y="20.09375"
     id="rect3011-68"
     style="fill:#000000;fill-opacity:1;stroke:none" />
  <rect
     width="10"
     height="10"
     rx="0"
     ry="0.049504954"
     x="60"
     y="30.09375"
     id="rect3011-7"
     style="fill:#000000;fill-opacity:1;stroke:none" />
  <rect
     width="10"
     height="10"
     rx="0"
     ry="0.049504954"
     x="20"
     y="0.09375"
     id="rect3011-0"
     style="fill:#000000;fill-opacity:1;stroke:none" />
  <rect
     width="10"
     height="10"
     rx="0"
     ry="0.049504954"
     x="10"
     y="0.09375"
     id="rect3011-6-0"
     style="fill:#000000;fill-opacity:1;stroke:none" />
  <rect
     width="10"
     height="10"
     rx="0"
     ry="0.049504954"
     x="0"
     y="0.09375"
     id="rect3011-5-5"
     style="fill:#000000;fill-opacity:1;stroke:none" />
  <rect
     width="10"
     height="10"
     rx="0"
     ry="0.049504954"
     x="0"
     y="10.09375"
     id="rect3011-0-6"
     style="fill:#000000;fill-opacity:1;stroke:none" />
  <rect
     width="10"
     height="10"
     rx="0"
     ry="0.049504954"
     x="0"
     y="20.09375"
     id="rect3011-68-3"
     style="fill:#000000;fill-opacity:1;stroke:none" />
  <rect
     width="10"
     height="10"
     rx="0"
     ry="0.049504954"
     x="0"
     y="30.09375"
     id="rect3011-7-7"
     style="fill:#000000;fill-opacity:1;stroke:none" />
  <rect
     width="10"
     height="10"
     rx="0"
     ry="0.049504954"
     x="0"
     y="40.09375"
     id="rect3011-68-1"
     style="fill:#000000;fill-opacity:1;stroke:none" />
  <rect
     width="10"
     height="10"
     rx="0"
     ry="0.049504954"
     x="0"
     y="50.09375"
     id="rect3011-7-2"
     style="fill:#000000;fill-opacity:1;stroke:none" />
  <rect
     width="10"
     height="10"
     rx="0"
     ry="0.049504954"
     x="60"
     y="60.09375"
     id="rect3011-9"
     style="fill:#000000;fill-opacity:1;stroke:none" />
  <rect
     width="10"
     height="10"
     rx="0"
     ry="0.049504954"
     x="40"
     y="60.09375"
     id="rect3011-6-4"
     style="fill:#000000;fill-opacity:1;stroke:none" />
  <rect
     width="10"
     height="10"
     rx="0"
     ry="0.049504954"
     x="30"
     y="60.09375"
     id="rect3011-5-8"
     style="fill:#000000;fill-opacity:1;stroke:none" />
  <rect
     width="10"
     height="10"
     rx="0"
     ry="0.049504954"
     x="50"
     y="60.09375"
     id="rect3011-2-8"
     style="fill:#000000;fill-opacity:1;stroke:none" />
  <rect
     width="10"
     height="10"
     rx="0"
     ry="0.049504954"
     x="20"
     y="60.09375"
     id="rect3011-0-7"
     style="fill:#000000;fill-opacity:1;stroke:none" />
  <rect
     width="10"
     height="10"
     rx="0"
     ry="0.049504954"
     x="10"
     y="60.09375"
     id="rect3011-6-0-0"
     style="fill:#000000;fill-opacity:1;stroke:none" />
  <rect
     width="10"
     height="10"
     rx="0"
     ry="0.049504954"
     x="0"
     y="60.09375"
     id="rect3011-5-5-8"
     style="fill:#000000;fill-opacity:1;stroke:none" />
  <rect
     width="10"
     height="10"
     rx="0"
     ry="0.049504954"
     x="60"
     y="40.09375"
     id="rect3011-68-9"
     style="fill:#000000;fill-opacity:1;stroke:none" />
  <rect
     width="10"
     height="10"
     rx="0"
     ry="0.049504954"
     x="60"
     y="50.09375"
     id="rect3011-7-9"
     style="fill:#000000;fill-opacity:1;stroke:none" />
</svg>
